<?xml version="1.0" encoding="UTF-8"?>
<svg id="MLogo" xmlns="http://www.w3.org/2000/svg" version="1.1" viewBox="0 0 800 800">
  <!-- Generator: Adobe Illustrator 29.7.1, SVG Export Plug-In . SVG Version: 2.1.1 Build 8)  -->
  <defs>
    <style>
      .st0 {
        fill: #e50914;
      }

      .st1 {
        fill: #b20710;
      }

      .st2 {
        fill: #9b0a1b;
      }
    </style>
  </defs>
  <polygon class="st1" points="478.38 80.28 622.39 75.36 461.1 716.48 327.27 714.79 478.38 80.28"/>
  <polygon class="st0" points="621.02 718.49 775 724.64 622.39 75.36 478.38 80.28 621.02 718.49"/>
  <polygon class="st1" points="25 719.4 140.86 76.03 272.16 77.68 173.25 712.01 25 719.4"/>
  <polygon class="st2" points="140.86 76.03 226.61 369.85 215.73 439.61 140.86 76.03"/>
  <polygon class="st0" points="327.27 714.79 461.1 716.48 272.16 77.68 140.86 76.03 327.27 714.79"/>
  <polygon class="st2" points="386.74 465.07 461.1 716.48 404.52 390.42 386.74 465.07"/>
  <polygon class="st2" points="478.38 80.28 545.55 380.81 530.75 439.61 478.38 80.28"/>
</svg>