<svg xmlns="http://www.w3.org/2000/svg" width="300" height="450" viewBox="0 0 300 450"><rect width="100%" height="100%" fill="#DDDDDD"/><path fill="#999999" d="M106.53 202.22h6.49v46.27h-7.58V218.6q0-1.79.19-3.87L91.65 241q-1 1.89-3.04 1.89h-1.22q-2.05 0-3.04-1.89l-14.14-26.37q.09 1.06.16 2.08.06 1.03.06 1.89v29.89h-7.58v-46.27h6.49q.58 0 .99.03.42.03.76.16.33.13.6.42.28.28.53.76l13.86 25.7q.54 1.02 1.01 2.11.46 1.09.91 2.24.45-1.18.93-2.29.48-1.1 1.02-2.12l13.66-25.64q.26-.48.55-.76.29-.29.62-.42.34-.13.75-.16.42-.03 1-.03m30.08 12.93q3.64 0 6.64 1.18 2.99 1.18 5.12 3.36 2.12 2.18 3.28 5.31 1.15 3.14 1.15 7.01 0 3.9-1.15 7.04-1.16 3.14-3.28 5.34-2.13 2.21-5.12 3.4-3 1.18-6.64 1.18-3.68 0-6.69-1.18-3.01-1.19-5.14-3.4-2.13-2.2-3.29-5.34-1.17-3.14-1.17-7.04 0-3.87 1.17-7.01 1.16-3.13 3.29-5.31t5.14-3.36 6.69-1.18m0 27.74q4.09 0 6.06-2.75t1.97-8.07q0-5.31-1.97-8.09-1.97-2.79-6.06-2.79-4.16 0-6.16 2.8t-2 8.08 2 8.05 6.16 2.77m45.6-27.23h6.24l-13.03 32.83h-7.17l-13.02-32.83h6.53q.89 0 1.49.41.59.42.78 1.06l6.34 17.54q.51 1.53.89 3 .39 1.48.67 2.95.32-1.47.71-2.95.38-1.47.93-3l6.46-17.54q.22-.64.8-1.06.58-.41 1.38-.41m10.68 0h7.94v32.83h-7.94zm9.03-9.57q0 1.02-.42 1.92-.41.9-1.1 1.57t-1.62 1.07-1.98.4q-1.03 0-1.94-.4t-1.58-1.07-1.07-1.57-.4-1.92q0-1.06.4-1.98.4-.93 1.07-1.6.67-.68 1.58-1.08t1.94-.4q1.05 0 1.98.4t1.62 1.08q.69.67 1.1 1.6.42.92.42 1.98m13.21 22.21h14.92q0-1.54-.44-2.9-.43-1.36-1.29-2.38-.87-1.03-2.19-1.62-1.33-.59-3.09-.59-3.43 0-5.39 1.95-1.97 1.95-2.52 5.54m20.16 4.77h-20.32q.2 2.52.9 4.36t1.86 3.04q1.15 1.2 2.73 1.8 1.59.59 3.51.59t3.31-.45 2.43-.99q1.04-.55 1.82-.99.79-.45 1.52-.45 1 0 1.48.73l2.27 2.88q-1.31 1.54-2.95 2.58-1.63 1.04-3.4 1.66-1.78.63-3.62.88-1.84.26-3.57.26-3.42 0-6.37-1.14-2.94-1.13-5.12-3.36-2.17-2.22-3.42-5.5t-1.25-7.6q0-3.36 1.09-6.32t3.12-5.15 4.96-3.47 6.61-1.28q3.1 0 5.73.99 2.62.99 4.51 2.89 1.89 1.91 2.96 4.68 1.07 2.76 1.07 6.32 0 1.79-.38 2.41-.39.63-1.48.63"/></svg>